<svg viewBox="0 0 595 100" xmlns="http://www.w3.org/2000/svg"><path d="m.28 5.32q0-.56.14-1.44 0-.03.01-.1 0-.07.01-.09.01-.02.02-.07 0-.05.02-.07.01-.02.03-.06.02-.03.05-.05.03-.01.07-.02.04-.02.1-.03.05 0 .12 0 .23 0 1.19.05.96.06 2.76.06 3.08 0 4.31-.07.02 0 .05-.01.04 0 .05 0 .16 0 .21.08.06.08.06.15 0 .1.04.59.04.49.04.55 0 .35-.04.44-.04.09-.18.09-.11 0-.16-.17-.11-.4-.19-.55-.09-.15-.37-.26-.28-.11-.85-.11h-1.82q-.34 0-.41.13-.08.13-.08.76v.69q0 1.88-.02 3.3-.02 1.43-.02 1.82 0 .2-.01.5-.01.3-.01.41 0 .61.2.8.18.17.41.26.22.09.38.11.16.01.27.07.12.05.12.18 0 .15-.07.19-.07.05-.27.05-.17 0-.74-.06-.58-.06-.81-.06-.17 0-.68.05-.51.05-.75.05-.52 0-.52-.22 0-.14.08-.19.09-.05.33-.09.25-.03.32-.04.47-.12.53-.56.14-1.24.14-5.3l-.01-2.5q0-.27-.16-.33-.15-.06-.91-.06-.98 0-1.47.05-.5.06-.59.11-.08.05-.19.19-.13.16-.2.37-.08.2-.1.33-.02.14-.09.23-.06.09-.19.09-.15 0-.15-.24zm9.84-1.64q0-.11.15-.19.15-.07.42-.14.27-.07.4-.13.88-.39 1.01-.39.18 0 .18.32 0 .07-.05.34-.05.26-.05.53-.01 1.26-.04 2.13-.02.88-.03 1.18-.01.3-.02.5-.01.19-.01.3 0 .27.11.27.03 0 .29-.26.26-.26.72-.52.45-.26.97-.26 1.13 0 1.76.68.63.67.63 2.08v2.03q0 .14.03.3.03.16.14.33.11.17.29.18.76.07.76.3 0 .22-.43.22-.07 0-.54-.03-.47-.04-.64-.04-.13 0-.58.02-.46.02-.5.02-.32 0-.32-.14 0-.15.12-.2.12-.05.26-.05.14 0 .26-.15.12-.16.12-.48 0-.05 0-.14.01-.08.01-.23 0-.15.01-.65 0-.5 0-1.3 0-.86-.51-1.48-.52-.62-1.22-.62-.66 0-1.36.54-.25.2-.32.64-.07.44-.07 1.95v.33q0 .63.1 1.01.11.39.46.54.11.04.31.06.19.01.3.05.1.03.1.14 0 .17-.15.17l-.37-.01q-.36-.02-.73-.04-.37-.02-.4-.02-.1 0-.49.03-.39.04-.5.04-.19 0-.28-.02-.09-.02-.09-.04-.01-.02-.01-.08 0-.14.17-.18.4-.11.52-.36.12-.24.12-.72l.06-4.77v-.69q0-2.11-.12-2.45-.09-.29-.47-.29-.13 0-.18 0l-.06-.02q-.24 0-.24-.14zm8.35 7.04q0-1.4.79-2.36.79-.97 2.05-.97.59 0 1.07.21.48.21.75.51.26.3.45.64.18.34.24.55.06.22.06.32 0 .25-.57.25h-3.18-.42q-.11 0-.13.02-.02.02-.02.13 0 1.32.71 2.08.7.75 1.65.75.59 0 1.2-.31.61-.32.64-.32.14 0 .14.13 0 .05-.1.2-.1.15-.31.34-.21.2-.49.38-.28.18-.7.31-.42.13-.88.13-1.23 0-2.09-.76-.86-.76-.86-2.23zm1.17-1.38q0 .19.18.19.38 0 1.39-.04 1.01-.04 1.08-.04.19 0 .24-.04.05-.03.05-.13 0-.42-.39-.98-.39-.56-1.12-.56-.67 0-1.05.55-.38.56-.38 1.05zm8.07-5.53q0-.16.16-.2.16-.04.7-.04.09 0 .39.01.3.02.43.02.15 0 .56-.01.42-.01.63-.01.7 0 .7.17 0 .16-.3.26-.29.11-.29.23 0 .14.09.37.09.22.18.36.09.14.27.41.19.26.21.32.48.75.99 1.44.51.69.58.69.09 0 .21-.17.13-.16.35-.53.23-.38.38-.61.04-.07.2-.3.16-.24.23-.34.06-.1.19-.3.12-.2.18-.31.05-.1.13-.25.08-.15.11-.25.02-.09.02-.18 0-.45-.47-.56-.06-.01-.16-.03-.11-.01-.16-.02-.05-.02-.12-.05-.07-.02-.09-.07-.03-.05-.03-.12 0-.17.39-.17.07 0 .26.01.19 0 .31 0 .33 0 .78.01.46.01.71.01.68 0 .68.21 0 .05-.08.1-.08.04-.24.11-.15.07-.28.17-.57.44-1.68 2.12-1.12 1.68-1.27 1.88-.23.28-.28.62-.06.33-.06 1.14 0 .19.01.78.01.6.01.85v.33q0 .47.16.73.16.27.3.32.14.05.28.05.03 0 .14 0 .11.01.14.01.1 0 .15.06.06.07.06.14 0 .14-.07.18-.07.04-.27.04-.07 0-.61-.01-.54 0-.79 0-.49 0-.89.02-.41.03-.65.03-.39 0-.39-.15 0-.13.08-.18.07-.05.26-.06.18-.01.26-.04.59-.18.59-.86 0-.08.01-.27 0-.19.01-.8.01-.62.01-1.77 0-.22-.04-.38-.03-.16-.08-.32-.05-.15-.24-.45-.19-.29-.37-.56-.18-.28-.62-.92-.44-.64-.85-1.26-.43-.66-.78-1-.35-.34-.54-.41-.19-.06-.44-.06-.35 0-.35-.18zm9.14 4.11q0-.09.06-.16.06-.06.27-.1.21-.04.61-.04.09 0 .43-.04.34-.03.36-.03.24 0 .28.09.05.1.05.61 0 .28-.04.95-.03.68-.03 1.51 0 1.23.47 1.74.48.51 1.08.51.9 0 1.3-.37.41-.38.41-1.33l-.03-1.94q0-.7-.11-.94-.11-.25-.53-.29-.31-.03-.31-.18 0-.32 1.23-.32.11 0 .28-.04.17-.03.22-.03.21 0 .28.07.06.07.06.32 0 .01-.01.22 0 .2-.01.54-.01.33-.02.75-.02.42-.02.97-.01.56-.01 1.09 0 .85.08 1.16.09.31.31.31.07 0 .19-.01.12 0 .18 0 .33 0 .33.18 0 .15-.1.19-.09.05-.42.05-.23 0-.8.07-.57.08-.61.08-.1 0-.16-.36-.06-.35-.09-.35-.02 0-.27.22-.25.22-.72.45-.47.22-1.03.22-2.25 0-2.25-2.43 0-1.36.01-1.93 0-.57 0-.59 0-.28-.14-.45-.15-.17-.28-.17h-.25q-.25 0-.25-.2zm8.09.09q0-.13.17-.19.17-.06.5-.13.34-.07.56-.17.09-.03.18-.09.1-.05.15-.07.05-.02.13-.04.07-.01.16-.01.17 0 .17.4 0 .1-.04.33-.03.22-.03.26 0 .17.08.17.01 0 .09-.11.08-.1.21-.25.13-.14.33-.29.2-.15.53-.25.32-.11.73-.11.52 0 .9.18.37.17.52.38.15.2.25.37.09.18.12.18.02 0 .26-.29.25-.29.7-.57.46-.29.96-.29 1.02 0 1.58.6.55.6.65 1.5.08.83.08 1.78v.45q0 .63.07.91.07.28.32.36.02 0 .13.02.11.02.19.04.07.01.14.07.07.05.07.14 0 .21-.46.21-.08 0-.42-.03-.35-.03-.5-.03-.21 0-.54.03-.33.03-.47.03-.34 0-.34-.14 0-.16.3-.27.29-.11.35-.24.05-.15.05-.64v-.23q0-.47 0-.83-.01-.36-.01-.66 0-.3-.02-.52-.02-.23-.02-.39 0-.16-.04-.29-.05-.13-.05-.2-.01-.07-.08-.17-.07-.1-.08-.13-.02-.03-.11-.14-.09-.11-.12-.14-.36-.43-1.05-.43-.32 0-.67.17-.35.16-.56.34-.21.17-.21.24 0 .05.02.2.02.15.04.55.02.4.02 1.03v1.19q0 .65.19.95.18.3.78.38.14.02.2.09.05.08.05.14 0 .15-.26.15-.1 0-.45-.04-.35-.03-.58-.03-.14 0-.68.03-.55.04-.59.04-.31 0-.31-.18 0-.1.06-.15.05-.05.26-.13.09-.03.14-.06.05-.03.12-.24.07-.21.07-.57 0-.06 0-.11 0-.06 0-.15.01-.09.01-.42 0-.33 0-.85 0-.3-.01-.49 0-.19 0-.25 0-.05-.01-.09-.01-.03-.01-.05 0-.74-.38-1.19-.37-.45-1.05-.45-.58 0-1.05.31-.46.31-.46.72v.19 2.63q0 .51.18.77.19.27.41.3.22.04.41.08.18.04.18.14 0 .13-.04.17-.05.04-.26.04-.05 0-.44-.02-.38-.02-.73-.02-.32 0-.69.02-.36.02-.42.02-.33 0-.33-.21 0-.1.07-.14.08-.04.18-.05.1-.02.21-.12.11-.11.18-.3.11-.4.11-2.13 0-.27 0-.84-.01-.58-.01-.87 0-.34-.15-.48-.15-.14-.32-.13-.18.01-.32-.03-.15-.03-.15-.17zm11.58 0q0-.13.17-.19.16-.06.5-.13.34-.07.56-.17.08-.03.18-.09.1-.05.15-.07.05-.02.13-.04.07-.01.16-.01.16 0 .16.4 0 .1-.03.33-.04.22-.04.26 0 .17.09.17.01 0 .09-.11.08-.1.21-.25.13-.14.33-.29.19-.15.52-.25.33-.11.74-.11.52 0 .89.18.38.17.53.38.15.2.24.37.1.18.13.18.01 0 .26-.29.24-.29.7-.57.45-.29.96-.29 1.02 0 1.57.6.56.6.65 1.5.09.83.09 1.78v.45q0 .63.07.91.07.28.32.36.01 0 .13.02.11.02.19.04.07.01.14.07.07.05.07.14 0 .21-.46.21-.08 0-.43-.03-.34-.03-.49-.03-.21 0-.54.03-.33.03-.47.03-.34 0-.34-.14 0-.16.3-.27.29-.11.35-.24.05-.15.05-.64v-.23q0-.47-.01-.83 0-.36 0-.66 0-.3-.02-.52-.02-.23-.02-.39 0-.16-.05-.29-.04-.13-.05-.2 0-.07-.07-.17-.07-.1-.09-.13-.01-.03-.1-.14-.09-.11-.12-.14-.36-.43-1.05-.43-.32 0-.67.17-.35.16-.56.34-.21.17-.21.24 0 .05.02.2.02.15.04.55.02.4.02 1.03v1.19q0 .65.18.95.19.3.79.38.14.02.19.09.06.08.06.14 0 .15-.27.15-.09 0-.44-.04-.35-.03-.58-.03-.14 0-.68.03-.55.04-.59.04-.31 0-.31-.18 0-.1.06-.15.05-.05.26-.13.09-.03.14-.06.04-.03.11-.24.07-.21.07-.57 0-.06 0-.11 0-.06.01-.15.01-.09.01-.42 0-.33 0-.85 0-.3-.01-.49-.01-.19-.01-.25 0-.05 0-.09-.01-.03-.01-.05 0-.74-.38-1.19-.38-.45-1.05-.45-.59 0-1.05.31-.46.31-.46.72v.19 2.63q0 .51.18.77.18.27.41.3.22.04.4.08.19.04.19.14 0 .13-.05.17-.04.04-.25.04-.05 0-.44-.02-.38-.02-.73-.02-.33 0-.69.02-.36.02-.42.02-.34 0-.34-.21 0-.1.08-.14.08-.04.18-.05.09-.02.21-.12.11-.11.18-.3.11-.4.11-2.13 0-.27-.01-.84 0-.58 0-.87 0-.34-.15-.48-.15-.14-.32-.13-.18.01-.32-.03-.15-.03-.15-.17zm11-.34q0-.17.28-.17.39 0 .81.02.41.01.69.01.24 0 .43-.01.19-.02.37-.02.1 0 .17.05.08.05.08.11 0 .25-.34.25h-.21q-.22 0-.22.39 0 .31.6 1.64.04.11.07.17.03.07.08.17.05.11.09.21.08.18.28.63.2.44.3.65.11.21.16.21.09 0 .65-1.61.57-1.61.57-1.94 0-.28-.13-.41-.14-.12-.3-.12-.17.01-.3-.04-.14-.05-.14-.2 0-.17.27-.17.21 0 .55.01.34 0 .46 0 .14 0 .48 0 .34-.01.38-.01.3 0 .3.18 0 .14-.25.2-.24.07-.33.18-.22.32-.75 1.76l-1.25 3.32q-.15.41-.31.83-.15.43-.25.7-.1.26-.19.53-.1.27-.16.41-.05.15-.12.28-.06.12-.11.17-.05.05-.09.05-.01 0-.05 0-.03 0-.17.01-.14 0-.42 0-.27 0-.27-.18 0-.04.32-.43.31-.39.63-.97.32-.57.32-1.05 0-.4-.79-2.14-.8-1.74-1.39-2.84-.15-.28-.31-.44-.17-.15-.26-.16-.1-.02-.16-.06-.07-.04-.07-.17zm9.96-3.95q0-.22.32-.22.04 0 .15-.01.11 0 .37 0 .07 0 .38.02.32.02.46.02.3 0 1.19-.02.88-.02 1.12-.02 1.31 0 2.26.66.96.67.96 1.91 0 .69-.26 1.23-.25.54-.6.84-.36.31-.8.51-.44.21-.79.27-.34.06-.61.06-.44 0-.91-.1-.46-.11-.46-.22 0-.21.18-.21.07 0 .29.06.22.05.43.05.32 0 .68-.09.37-.09.76-.29.39-.2.64-.62.26-.41.26-.96 0-.93-.76-1.74-.76-.8-2.09-.8-.43 0-.58.25-.16.26-.16 1.17 0 2.92-.01 3.33-.02.41-.02 2.46 0 1.23.58 1.61.15.09.38.12.23.03.39.02.15 0 .27.06.12.06.12.23 0 .24-.32.24-.32 0-1.14-.04-.81-.03-.86-.03-.14 0-.56.03-.41.02-.75.02-.43 0-.43-.15 0-.08.02-.14.02-.06.04-.09.02-.04.09-.06.07-.03.1-.05.03-.01.13-.03.11-.02.15-.04.03-.01.09-.02.05 0 .07-.01.02-.01.07-.04.05-.04.08-.1.03-.06.08-.17.05-.1.1-.27.1-.27.16-2.1.05-1.84.05-2.84 0-.87-.01-1.61 0-.73 0-.77 0-.38-.24-.75-.24-.37-.78-.37-.28 0-.28-.19zm7.92 4.39q0-.07.04-.12.03-.04.14-.09.1-.05.21-.08.11-.04.33-.11.22-.08.41-.16.16-.07.29-.13.13-.06.18-.08.04-.02.09-.03.06-.02.14-.02.21 0 .21.27 0 .07-.04.31-.04.24-.04.36v3.84q0 .42.13.66.14.23.28.29.15.06.37.07.17.01.23.02.05.01.12.05.07.04.07.14 0 .24-.23.24-.03 0-.1-.01-.07-.01-.11-.01-.31 0-.52-.01-.21-.01-.48-.01-.33 0-.63.01-.29.01-.36.01-.56 0-.56-.18 0-.19.21-.26.01 0 .05-.02.33-.11.4-.28.12-.28.12-2.22v-1.24q0-.4-.1-.64-.09-.24-.18-.29-.08-.06-.29-.1-.2-.03-.24-.04-.14-.06-.14-.14zm.8-2.93q0-.17.24-.47.25-.3.46-.3.22 0 .43.29.21.28.21.51 0 .22-.26.49-.27.28-.4.28-.28 0-.48-.3-.2-.29-.2-.5zm3.23 8.05q0-.07.01-.12.01-.05.02-.08.01-.04.06-.11.04-.07.08-.12.04-.06.13-.19.09-.14.18-.25 2.56-3.69 2.56-3.9 0-.07-.32-.07-.17 0-.86.04-.7.05-.85.05-.25.02-.43.21-.17.2-.27.4-.1.19-.17.19-.11 0-.11-.15 0-.25.04-.52.03-.27.09-.55.05-.29.05-.33.03-.25.28-.25.04 0 .24.01.2.01.53.02.34.01.73.01.43 0 1.11-.02.67-.02.95-.02.17 0 .17.14 0 .09-.08.21-.08.12-.19.25-.11.14-.14.18-.59.91-1.32 1.95-.74 1.05-1.07 1.54-.33.5-.33.67 0 .12.69.12.15 0 .39 0 .24-.01.3-.01.36 0 .61-.05.25-.05.39-.15.13-.11.19-.19.05-.07.11-.24.07-.17.1-.22.09-.2.23-.2.23 0 .23.2 0 .08-.34.85-.04.1-.09.28-.05.18-.08.3-.04.12-.1.21-.06.09-.16.09h-1.6q-.08 0-.44.01-.36.01-.58.01h-.24q-.24 0-.33.01h-.1q-.27 0-.27-.21zm5.29 0q0-.07.01-.12.01-.05.02-.08.02-.04.06-.11.04-.07.08-.12.04-.06.14-.19.09-.14.17-.25 2.56-3.69 2.56-3.9 0-.07-.32-.07-.17 0-.86.04-.69.05-.85.05-.25.02-.42.21-.18.2-.28.4-.1.19-.17.19-.11 0-.11-.15 0-.25.04-.52.03-.27.09-.55.05-.29.05-.33.03-.25.28-.25.05 0 .24.01.2.01.53.02.34.01.73.01.44 0 1.11-.02.67-.02.95-.02.17 0 .17.14 0 .09-.08.21-.08.12-.19.25-.11.14-.14.18-.59.91-1.32 1.95-.74 1.05-1.07 1.54-.32.5-.32.67 0 .12.68.12.16 0 .39 0 .24-.01.3-.01.36 0 .61-.05.26-.05.39-.15.13-.11.19-.19.05-.07.12-.24.06-.17.09-.22.1-.2.24-.2.22 0 .22.2 0 .08-.34.85-.04.1-.09.28-.05.18-.08.3-.04.12-.1.21-.06.09-.16.09h-1.6q-.08 0-.44.01-.35.01-.58.01h-.24q-.23 0-.33.01h-.1q-.27 0-.27-.21zm5.41-.98q0-.5.21-.85.21-.34.64-.53.42-.19.88-.3.47-.11 1.12-.22.09-.02.13-.03.04 0 .11-.01.07-.01.13-.02.1-.01.13-.03.04-.01.07-.06.04-.05.04-.13 0-.14.01-.39.01-.24.01-.34 0-.8-.46-1.16-.46-.35-.89-.35-1.01 0-1.01.84 0 .11.03.28.02.16.02.22 0 .28-.25.28-.08 0-.21-.02-.12-.02-.28-.07-.17-.05-.27-.17-.11-.12-.11-.29 0-.54.74-1.04.73-.5 1.62-.5.6 0 1.02.14.42.14.62.32.2.17.32.46.11.29.12.45.02.16.02.4 0 1.01-.04 1.59-.03.58-.03 1.01 0 .52.11.82.11.3.26.39.16.08.31.09.16.02.27.06.11.04.11.17 0 .29-.88.29-.37 0-.62-.19-.26-.2-.38-.39-.11-.19-.12-.19-.02 0-.11.09-.1.09-.28.22-.17.13-.39.25-.22.13-.5.22-.29.09-.57.09-.9 0-1.3-.42-.35-.35-.35-.98zm1.09-.21q0 .48.28.76.28.29.8.29.36 0 .62-.11.26-.11.39-.25.12-.14.19-.37.07-.24.08-.36.01-.13.01-.34v-1.01q0-.12-.1-.12-.03 0-.07.01-.04.02-.07.02-.32.05-.41.07-.08.01-.39.08-.31.07-.43.13-.12.05-.33.17-.22.12-.31.25-.09.14-.18.34-.08.2-.08.44z" transform="matrix(4.51807206 0 0 4.51807206 117.368344 6.78001)"/><g transform="matrix(1.04950943 0 0 1.04950943 -3.500057 -.643337)"><path d="m14.257 65.774c4.191 9.445 11.735 16.402 20.631 20.071l13.931-34.924zm6.037 3.583a3.835 3.835 0 0 1 7.049-3.029 3.835 3.835 0 0 1 -2.01 5.039 3.834 3.834 0 0 1 -5.039-2.01zm13.961 9.952a3.833 3.833 0 0 1 -5.038-2.01 3.834 3.834 0 0 1 2.01-5.037 3.834 3.834 0 0 1 5.038 2.009 3.834 3.834 0 0 1 -2.01 5.038zm3.173-12.049a3.835 3.835 0 1 1 -3.028-7.049 3.835 3.835 0 0 1 3.028 7.049zm-25.607-31.797-5.004-1.996c-4.142 10.69-4.309 22.922.452 34.308l4.933-2.12c-4.169-10.009-4.015-20.773-.381-30.192zm21.396-22.496-2.12-4.934c-11.29 4.985-19.587 13.974-23.94 24.579l5.005 1.996c3.845-9.334 11.143-17.249 21.055-21.641zm31.037-.744 1.997-5.005c-10.69-4.141-22.923-4.308-34.308.452l2.12 4.934c10.008-4.169 20.772-4.016 30.191-.381zm-28.51 73.965c8.98 3.46 19.241 3.605 28.782-.363l-14.853-34.562zm10.446-2.126a3.836 3.836 0 1 1 -4.656-6.097 3.836 3.836 0 0 1 4.656 6.097zm.149-11.312a3.835 3.835 0 0 1 6.096-4.655 3.834 3.834 0 1 1 -6.096 4.655zm12.309 11.45a3.833 3.833 0 0 1 -5.375-.721 3.834 3.834 0 1 1 6.095-4.655 3.833 3.833 0 0 1 -.72 5.376zm-2.15-41.002 34.561-14.852c-4.191-9.446-11.736-16.403-20.632-20.073zm14.242-9.547a3.835 3.835 0 1 1 2.231-4.942 3.833 3.833 0 0 1 -2.231 4.942zm14.498-8.509a3.836 3.836 0 1 1 -7.178 2.71 3.836 3.836 0 0 1 7.178-2.71zm-10.794-3.387a3.834 3.834 0 0 1 -4.943-2.231 3.834 3.834 0 1 1 7.175-2.712 3.834 3.834 0 0 1 -2.232 4.943z"/><path d="m92.75 27.619 4.934-2.12c-4.984-11.291-13.973-19.587-24.579-23.94l-1.996 5.004c9.334 3.846 17.249 11.144 21.641 21.056zm-6.965 36.356c3.461-8.98 3.605-19.241-.362-28.782l-34.562 14.851zm-9.471-21.974a3.835 3.835 0 0 1 5.137-1.745 3.836 3.836 0 1 1 -5.137 1.745zm4.898 10.199a3.836 3.836 0 1 1 -3.394 6.88 3.836 3.836 0 0 1 3.394-6.88zm-10.983-6.527a3.835 3.835 0 1 1 -3.388 6.88 3.834 3.834 0 1 1 3.388-6.88zm-4.857 39.788c9.445-4.191 16.402-11.735 20.072-20.631l-34.924-13.932zm9.036-22.212a3.836 3.836 0 1 1 2.736 7.169 3.836 3.836 0 0 1 -2.736-7.169zm-11.907-3.67a3.833 3.833 0 0 1 4.95 2.219 3.834 3.834 0 1 1 -7.166 2.732 3.835 3.835 0 0 1 2.216-4.951zm3.602 12.255a3.837 3.837 0 0 1 2.736 7.169 3.837 3.837 0 0 1 -2.736-7.169zm-31.041 16.062-1.996 5.005c10.689 4.142 22.922 4.31 34.308-.452l-2.12-4.934c-10.009 4.169-20.774 4.015-30.192.381zm-1.118-73.237c-9.446 4.191-16.402 11.735-20.072 20.631l34.924 13.93zm-8.255 22.017a3.837 3.837 0 1 1 -2.787-7.15 3.837 3.837 0 0 1 2.787 7.15zm11.935 3.579a3.836 3.836 0 1 1 -2.788-7.147 3.836 3.836 0 0 1 2.788 7.147zm-3.694-12.228a3.836 3.836 0 1 1 -2.788-7.147 3.836 3.836 0 0 1 2.788 7.147z"/><path d="m66.099 87.152 2.12 4.934c11.29-4.983 19.587-13.973 23.94-24.578l-5.005-1.996c-3.846 9.334-11.143 17.249-21.055 21.64zm21.014-52.687c4.168 10.008 4.016 20.773.382 30.191l5.005 1.997c4.141-10.69 4.309-22.923-.452-34.308zm-73.583 1.68c-3.46 8.98-3.605 19.241.363 28.783l34.562-14.852zm8.618 21.968a3.837 3.837 0 1 1 -6.782-3.59 3.837 3.837 0 0 1 6.782 3.59zm.588-11.931a3.836 3.836 0 1 1 -6.78-3.588 3.836 3.836 0 0 1 6.78 3.588zm10.786 6.842a3.836 3.836 0 1 1 -6.782-3.587 3.836 3.836 0 0 1 6.782 3.587zm30.049-39.092c-8.979-3.46-19.24-3.605-28.781.363l14.852 34.562zm-11.723 4.447a3.836 3.836 0 0 1 6.944 3.26 3.837 3.837 0 1 1 -6.944-3.26zm.627 14.362a3.835 3.835 0 1 1 -6.944-3.259 3.835 3.835 0 0 1 6.944 3.259zm-7.47-16.219a3.836 3.836 0 1 1 -3.262 6.945 3.836 3.836 0 0 1 3.262-6.945zm-32.44 49.979-4.934 2.12c4.984 11.289 13.974 19.587 24.579 23.94l1.996-5.007c-9.333-3.844-17.249-11.141-21.641-21.053z"/></g></svg>