<svg data-v-423bf9ae="" xmlns="http://www.w3.org/2000/svg" viewBox="0 0 475.9788841580198 173" class="iconAbove"><!----><!----><!----><g data-v-423bf9ae="" id="159d3527-2f39-40c7-b206-cdc9e3242f6c" fill="white" transform="matrix(4.518072055548654,0,0,4.518072055548654,-1.2650639347828019,99.34616443378548)"><path d="M0.28 5.32L0.28 5.32L0.28 5.32Q0.28 4.76 0.42 3.88L0.42 3.88L0.42 3.88Q0.42 3.85 0.43 3.78L0.43 3.78L0.43 3.78Q0.43 3.71 0.44 3.69L0.44 3.69L0.44 3.69Q0.45 3.67 0.46 3.62L0.46 3.62L0.46 3.62Q0.46 3.57 0.48 3.55L0.48 3.55L0.48 3.55Q0.49 3.53 0.51 3.49L0.51 3.49L0.51 3.49Q0.53 3.46 0.56 3.44L0.56 3.44L0.56 3.44Q0.59 3.43 0.63 3.42L0.63 3.42L0.63 3.42Q0.67 3.40 0.73 3.39L0.73 3.39L0.73 3.39Q0.78 3.39 0.85 3.39L0.85 3.39L0.85 3.39Q1.08 3.39 2.04 3.44L2.04 3.44L2.04 3.44Q3.00 3.50 4.80 3.50L4.80 3.50L4.80 3.50Q7.88 3.50 9.11 3.43L9.11 3.43L9.11 3.43Q9.13 3.43 9.16 3.42L9.16 3.42L9.16 3.42Q9.20 3.42 9.21 3.42L9.21 3.42L9.21 3.42Q9.37 3.42 9.42 3.50L9.42 3.50L9.42 3.50Q9.48 3.58 9.48 3.65L9.48 3.65L9.48 3.65Q9.48 3.75 9.52 4.24L9.52 4.24L9.52 4.24Q9.56 4.73 9.56 4.79L9.56 4.79L9.56 4.79Q9.56 5.14 9.52 5.23L9.52 5.23L9.52 5.23Q9.48 5.32 9.34 5.32L9.34 5.32L9.34 5.32Q9.23 5.32 9.18 5.15L9.18 5.15L9.18 5.15Q9.07 4.75 8.99 4.60L8.99 4.60L8.99 4.60Q8.90 4.45 8.62 4.34L8.62 4.34L8.62 4.34Q8.34 4.23 7.77 4.23L7.77 4.23L5.95 4.23L5.95 4.23Q5.61 4.23 5.54 4.36L5.54 4.36L5.54 4.36Q5.46 4.49 5.46 5.12L5.46 5.12L5.46 5.81L5.46 5.81Q5.46 7.69 5.44 9.11L5.44 9.11L5.44 9.11Q5.42 10.54 5.42 10.93L5.42 10.93L5.42 10.93Q5.42 11.13 5.41 11.43L5.41 11.43L5.41 11.43Q5.40 11.73 5.40 11.84L5.40 11.84L5.40 11.84Q5.40 12.45 5.60 12.64L5.60 12.64L5.60 12.64Q5.78 12.81 6.01 12.90L6.01 12.90L6.01 12.90Q6.23 12.99 6.39 13.01L6.39 13.01L6.39 13.01Q6.55 13.02 6.66 13.08L6.66 13.08L6.66 13.08Q6.78 13.13 6.78 13.26L6.78 13.26L6.78 13.26Q6.78 13.41 6.71 13.45L6.71 13.45L6.71 13.45Q6.64 13.50 6.44 13.50L6.44 13.50L6.44 13.50Q6.27 13.50 5.70 13.44L5.70 13.44L5.70 13.44Q5.12 13.38 4.89 13.38L4.89 13.38L4.89 13.38Q4.72 13.38 4.21 13.43L4.21 13.43L4.21 13.43Q3.70 13.48 3.46 13.48L3.46 13.48L3.46 13.48Q2.94 13.48 2.94 13.26L2.94 13.26L2.94 13.26Q2.94 13.12 3.02 13.07L3.02 13.07L3.02 13.07Q3.11 13.02 3.35 12.98L3.35 12.98L3.35 12.98Q3.60 12.95 3.67 12.94L3.67 12.94L3.67 12.94Q4.14 12.82 4.20 12.38L4.20 12.38L4.20 12.38Q4.34 11.14 4.34 7.08L4.34 7.08L4.33 4.58L4.33 4.58Q4.33 4.31 4.17 4.25L4.17 4.25L4.17 4.25Q4.02 4.19 3.26 4.19L3.26 4.19L3.26 4.19Q2.28 4.19 1.79 4.24L1.79 4.24L1.79 4.24Q1.29 4.30 1.20 4.35L1.20 4.35L1.20 4.35Q1.12 4.40 1.01 4.54L1.01 4.54L1.01 4.54Q0.88 4.70 0.81 4.91L0.81 4.91L0.81 4.91Q0.73 5.11 0.71 5.24L0.71 5.24L0.71 5.24Q0.69 5.38 0.62 5.47L0.62 5.47L0.62 5.47Q0.56 5.56 0.43 5.56L0.43 5.56L0.43 5.56Q0.28 5.56 0.28 5.32ZM10.12 3.68L10.12 3.68L10.12 3.68Q10.12 3.57 10.27 3.49L10.27 3.49L10.27 3.49Q10.42 3.42 10.69 3.35L10.69 3.35L10.69 3.35Q10.96 3.28 11.09 3.22L11.09 3.22L11.09 3.22Q11.97 2.83 12.10 2.83L12.10 2.83L12.10 2.83Q12.28 2.83 12.28 3.15L12.28 3.15L12.28 3.15Q12.28 3.22 12.23 3.49L12.23 3.49L12.23 3.49Q12.18 3.75 12.18 4.02L12.18 4.02L12.18 4.02Q12.17 5.28 12.14 6.15L12.14 6.15L12.14 6.15Q12.12 7.03 12.11 7.33L12.11 7.33L12.11 7.33Q12.10 7.63 12.09 7.83L12.09 7.83L12.09 7.83Q12.08 8.02 12.08 8.13L12.08 8.13L12.08 8.13Q12.08 8.40 12.19 8.40L12.19 8.40L12.19 8.40Q12.22 8.40 12.48 8.14L12.48 8.14L12.48 8.14Q12.74 7.88 13.20 7.62L13.20 7.62L13.20 7.62Q13.65 7.36 14.17 7.36L14.17 7.36L14.17 7.36Q15.30 7.36 15.93 8.04L15.93 8.04L15.93 8.04Q16.56 8.71 16.56 10.12L16.56 10.12L16.56 12.15L16.56 12.15Q16.56 12.29 16.59 12.45L16.59 12.45L16.59 12.45Q16.62 12.61 16.73 12.78L16.73 12.78L16.73 12.78Q16.84 12.95 17.02 12.96L17.02 12.96L17.02 12.96Q17.78 13.03 17.78 13.26L17.78 13.26L17.78 13.26Q17.78 13.48 17.35 13.48L17.35 13.48L17.35 13.48Q17.28 13.48 16.81 13.45L16.81 13.45L16.81 13.45Q16.34 13.41 16.17 13.41L16.17 13.41L16.17 13.41Q16.04 13.41 15.59 13.43L15.59 13.43L15.59 13.43Q15.13 13.45 15.09 13.45L15.09 13.45L15.09 13.45Q14.77 13.45 14.77 13.31L14.77 13.31L14.77 13.31Q14.77 13.16 14.89 13.11L14.89 13.11L14.89 13.11Q15.01 13.06 15.15 13.06L15.15 13.06L15.15 13.06Q15.29 13.06 15.41 12.91L15.41 12.91L15.41 12.91Q15.53 12.75 15.53 12.43L15.53 12.43L15.53 12.43Q15.53 12.38 15.53 12.29L15.53 12.29L15.53 12.29Q15.54 12.21 15.54 12.06L15.54 12.06L15.54 12.06Q15.54 11.91 15.55 11.41L15.55 11.41L15.55 11.41Q15.55 10.91 15.55 10.11L15.55 10.11L15.55 10.11Q15.55 9.25 15.04 8.63L15.04 8.63L15.04 8.63Q14.52 8.01 13.82 8.01L13.82 8.01L13.82 8.01Q13.16 8.01 12.46 8.55L12.46 8.55L12.46 8.55Q12.21 8.75 12.14 9.19L12.14 9.19L12.14 9.19Q12.07 9.63 12.07 11.14L12.07 11.14L12.07 11.47L12.07 11.47Q12.07 12.10 12.17 12.48L12.17 12.48L12.17 12.48Q12.28 12.87 12.63 13.02L12.63 13.02L12.63 13.02Q12.74 13.06 12.94 13.08L12.94 13.08L12.94 13.08Q13.13 13.09 13.24 13.13L13.24 13.13L13.24 13.13Q13.34 13.16 13.34 13.27L13.34 13.27L13.34 13.27Q13.34 13.44 13.19 13.44L13.19 13.44L12.82 13.43L12.82 13.43Q12.46 13.41 12.09 13.39L12.09 13.39L12.09 13.39Q11.72 13.37 11.69 13.37L11.69 13.37L11.69 13.37Q11.59 13.37 11.20 13.40L11.20 13.40L11.20 13.40Q10.81 13.44 10.70 13.44L10.70 13.44L10.70 13.44Q10.51 13.44 10.42 13.42L10.42 13.42L10.42 13.42Q10.33 13.40 10.33 13.38L10.33 13.38L10.33 13.38Q10.32 13.36 10.32 13.30L10.32 13.30L10.32 13.30Q10.32 13.16 10.49 13.12L10.49 13.12L10.49 13.12Q10.89 13.01 11.01 12.76L11.01 12.76L11.01 12.76Q11.13 12.52 11.13 12.04L11.13 12.04L11.19 7.27L11.19 6.58L11.19 6.58Q11.19 4.47 11.07 4.13L11.07 4.13L11.07 4.13Q10.98 3.84 10.60 3.84L10.60 3.84L10.60 3.84Q10.47 3.84 10.42 3.84L10.42 3.84L10.36 3.82L10.36 3.82Q10.12 3.82 10.12 3.68ZM18.47 10.72L18.47 10.72L18.47 10.72Q18.47 9.32 19.26 8.36L19.26 8.36L19.26 8.36Q20.05 7.39 21.31 7.39L21.31 7.39L21.31 7.39Q21.90 7.39 22.38 7.60L22.38 7.60L22.38 7.60Q22.86 7.81 23.13 8.11L23.13 8.11L23.13 8.11Q23.39 8.41 23.58 8.75L23.58 8.75L23.58 8.75Q23.76 9.09 23.82 9.30L23.82 9.30L23.82 9.30Q23.88 9.52 23.88 9.62L23.88 9.62L23.88 9.62Q23.88 9.87 23.31 9.87L23.31 9.87L20.13 9.87L19.71 9.87L19.71 9.87Q19.60 9.87 19.58 9.89L19.58 9.89L19.58 9.89Q19.56 9.91 19.56 10.02L19.56 10.02L19.56 10.02Q19.56 11.34 20.27 12.10L20.27 12.10L20.27 12.10Q20.97 12.85 21.92 12.85L21.92 12.85L21.92 12.85Q22.51 12.85 23.12 12.54L23.12 12.54L23.12 12.54Q23.73 12.22 23.76 12.22L23.76 12.22L23.76 12.22Q23.90 12.22 23.90 12.35L23.90 12.35L23.90 12.35Q23.90 12.40 23.80 12.55L23.80 12.55L23.80 12.55Q23.70 12.70 23.49 12.89L23.49 12.89L23.49 12.89Q23.28 13.09 23.00 13.27L23.00 13.27L23.00 13.27Q22.72 13.45 22.30 13.58L22.30 13.58L22.30 13.58Q21.88 13.71 21.42 13.71L21.42 13.71L21.42 13.71Q20.19 13.71 19.33 12.95L19.33 12.95L19.33 12.95Q18.47 12.19 18.47 10.72ZM19.64 9.34L19.64 9.34L19.64 9.34Q19.64 9.53 19.82 9.53L19.82 9.53L19.82 9.53Q20.20 9.53 21.21 9.49L21.21 9.49L21.21 9.49Q22.22 9.45 22.29 9.45L22.29 9.45L22.29 9.45Q22.48 9.45 22.53 9.41L22.53 9.41L22.53 9.41Q22.58 9.38 22.58 9.28L22.58 9.28L22.58 9.28Q22.58 8.86 22.19 8.30L22.19 8.30L22.19 8.30Q21.80 7.74 21.07 7.74L21.07 7.74L21.07 7.74Q20.40 7.74 20.02 8.29L20.02 8.29L20.02 8.29Q19.64 8.85 19.64 9.34ZM27.71 3.81L27.71 3.81L27.71 3.81Q27.71 3.65 27.87 3.61L27.87 3.61L27.87 3.61Q28.03 3.57 28.57 3.57L28.57 3.57L28.57 3.57Q28.66 3.57 28.96 3.58L28.96 3.58L28.96 3.58Q29.26 3.60 29.39 3.60L29.39 3.60L29.39 3.60Q29.54 3.60 29.95 3.59L29.95 3.59L29.95 3.59Q30.37 3.58 30.58 3.58L30.58 3.58L30.58 3.58Q31.28 3.58 31.28 3.75L31.28 3.75L31.28 3.75Q31.28 3.91 30.98 4.01L30.98 4.01L30.98 4.01Q30.69 4.12 30.69 4.24L30.69 4.24L30.69 4.24Q30.69 4.38 30.78 4.61L30.78 4.61L30.78 4.61Q30.87 4.83 30.96 4.97L30.96 4.97L30.96 4.97Q31.05 5.11 31.23 5.38L31.23 5.38L31.23 5.38Q31.42 5.64 31.44 5.70L31.44 5.70L31.44 5.70Q31.92 6.45 32.43 7.14L32.43 7.14L32.43 7.14Q32.94 7.83 33.01 7.83L33.01 7.83L33.01 7.83Q33.10 7.83 33.22 7.66L33.22 7.66L33.22 7.66Q33.35 7.50 33.57 7.13L33.57 7.13L33.57 7.13Q33.80 6.75 33.95 6.52L33.95 6.52L33.95 6.52Q33.99 6.45 34.15 6.22L34.15 6.22L34.15 6.22Q34.31 5.98 34.38 5.88L34.38 5.88L34.38 5.88Q34.44 5.78 34.57 5.58L34.57 5.58L34.57 5.58Q34.69 5.38 34.75 5.27L34.75 5.27L34.75 5.27Q34.80 5.17 34.88 5.02L34.88 5.02L34.88 5.02Q34.96 4.87 34.99 4.77L34.99 4.77L34.99 4.77Q35.01 4.68 35.01 4.59L35.01 4.59L35.01 4.59Q35.01 4.14 34.54 4.03L34.54 4.03L34.54 4.03Q34.48 4.02 34.38 4.00L34.38 4.00L34.38 4.00Q34.27 3.99 34.22 3.98L34.22 3.98L34.22 3.98Q34.17 3.96 34.10 3.93L34.10 3.93L34.10 3.93Q34.03 3.91 34.01 3.86L34.01 3.86L34.01 3.86Q33.98 3.81 33.98 3.74L33.98 3.74L33.98 3.74Q33.98 3.57 34.37 3.57L34.37 3.57L34.37 3.57Q34.44 3.57 34.63 3.58L34.63 3.58L34.63 3.58Q34.82 3.58 34.94 3.58L34.94 3.58L34.94 3.58Q35.27 3.58 35.72 3.59L35.72 3.59L35.72 3.59Q36.18 3.60 36.43 3.60L36.43 3.60L36.43 3.60Q37.11 3.60 37.11 3.81L37.11 3.81L37.11 3.81Q37.11 3.86 37.03 3.91L37.03 3.91L37.03 3.91Q36.95 3.95 36.79 4.02L36.79 4.02L36.79 4.02Q36.64 4.09 36.51 4.19L36.51 4.19L36.51 4.19Q35.94 4.63 34.83 6.31L34.83 6.31L34.83 6.31Q33.71 7.99 33.56 8.19L33.56 8.19L33.56 8.19Q33.33 8.47 33.28 8.81L33.28 8.81L33.28 8.81Q33.22 9.14 33.22 9.95L33.22 9.95L33.22 9.95Q33.22 10.14 33.23 10.73L33.23 10.73L33.23 10.73Q33.24 11.33 33.24 11.58L33.24 11.58L33.24 11.91L33.24 11.91Q33.24 12.38 33.40 12.64L33.40 12.64L33.40 12.64Q33.56 12.91 33.70 12.96L33.70 12.96L33.70 12.96Q33.84 13.01 33.98 13.01L33.98 13.01L33.98 13.01Q34.01 13.01 34.12 13.01L34.12 13.01L34.12 13.01Q34.23 13.02 34.26 13.02L34.26 13.02L34.26 13.02Q34.36 13.02 34.41 13.08L34.41 13.08L34.41 13.08Q34.47 13.15 34.47 13.22L34.47 13.22L34.47 13.22Q34.47 13.36 34.40 13.40L34.40 13.40L34.40 13.40Q34.33 13.44 34.13 13.44L34.13 13.44L34.13 13.44Q34.06 13.44 33.52 13.43L33.52 13.43L33.52 13.43Q32.98 13.43 32.73 13.43L32.73 13.43L32.73 13.43Q32.24 13.43 31.84 13.45L31.84 13.45L31.84 13.45Q31.43 13.48 31.19 13.48L31.19 13.48L31.19 13.48Q30.80 13.48 30.80 13.33L30.80 13.33L30.80 13.33Q30.80 13.20 30.88 13.15L30.88 13.15L30.88 13.15Q30.95 13.10 31.14 13.09L31.14 13.09L31.14 13.09Q31.32 13.08 31.40 13.05L31.40 13.05L31.40 13.05Q31.99 12.87 31.99 12.19L31.99 12.19L31.99 12.19Q31.99 12.11 32.00 11.92L32.00 11.92L32.00 11.92Q32.00 11.73 32.01 11.12L32.01 11.12L32.01 11.12Q32.02 10.50 32.02 9.35L32.02 9.35L32.02 9.35Q32.02 9.13 31.98 8.97L31.98 8.97L31.98 8.97Q31.95 8.81 31.90 8.65L31.90 8.65L31.90 8.65Q31.85 8.50 31.66 8.20L31.66 8.20L31.66 8.20Q31.47 7.91 31.29 7.64L31.29 7.64L31.29 7.64Q31.11 7.36 30.67 6.72L30.67 6.72L30.67 6.72Q30.23 6.08 29.82 5.46L29.82 5.46L29.82 5.46Q29.39 4.80 29.04 4.46L29.04 4.46L29.04 4.46Q28.69 4.12 28.50 4.05L28.50 4.05L28.50 4.05Q28.31 3.99 28.06 3.99L28.06 3.99L28.06 3.99Q27.71 3.99 27.71 3.81ZM36.85 7.92L36.85 7.92L36.85 7.92Q36.85 7.83 36.91 7.76L36.91 7.76L36.91 7.76Q36.97 7.70 37.18 7.66L37.18 7.66L37.18 7.66Q37.39 7.62 37.79 7.62L37.79 7.62L37.79 7.62Q37.88 7.62 38.22 7.58L38.22 7.58L38.22 7.58Q38.56 7.55 38.58 7.55L38.58 7.55L38.58 7.55Q38.82 7.55 38.86 7.64L38.86 7.64L38.86 7.64Q38.91 7.74 38.91 8.25L38.91 8.25L38.91 8.25Q38.91 8.53 38.87 9.20L38.87 9.20L38.87 9.20Q38.84 9.88 38.84 10.71L38.84 10.71L38.84 10.71Q38.84 11.94 39.31 12.45L39.31 12.45L39.31 12.45Q39.79 12.96 40.39 12.96L40.39 12.96L40.39 12.96Q41.29 12.96 41.69 12.59L41.69 12.59L41.69 12.59Q42.10 12.21 42.10 11.26L42.10 11.26L42.07 9.32L42.07 9.32Q42.07 8.62 41.96 8.38L41.96 8.38L41.96 8.38Q41.85 8.13 41.43 8.09L41.43 8.09L41.43 8.09Q41.12 8.06 41.12 7.91L41.12 7.91L41.12 7.91Q41.12 7.59 42.35 7.59L42.35 7.59L42.35 7.59Q42.46 7.59 42.63 7.55L42.63 7.55L42.63 7.55Q42.80 7.52 42.85 7.52L42.85 7.52L42.85 7.52Q43.06 7.52 43.13 7.59L43.13 7.59L43.13 7.59Q43.19 7.66 43.19 7.91L43.19 7.91L43.19 7.91Q43.19 7.92 43.18 8.13L43.18 8.13L43.18 8.13Q43.18 8.33 43.17 8.67L43.17 8.67L43.17 8.67Q43.16 9.00 43.15 9.42L43.15 9.42L43.15 9.42Q43.13 9.84 43.13 10.39L43.13 10.39L43.13 10.39Q43.12 10.95 43.12 11.48L43.12 11.48L43.12 11.48Q43.12 12.33 43.20 12.64L43.20 12.64L43.20 12.64Q43.29 12.95 43.51 12.95L43.51 12.95L43.51 12.95Q43.58 12.95 43.70 12.94L43.70 12.94L43.70 12.94Q43.82 12.94 43.88 12.94L43.88 12.94L43.88 12.94Q44.21 12.94 44.21 13.12L44.21 13.12L44.21 13.12Q44.21 13.27 44.11 13.31L44.11 13.31L44.11 13.31Q44.02 13.36 43.69 13.36L43.69 13.36L43.69 13.36Q43.46 13.36 42.89 13.43L42.89 13.43L42.89 13.43Q42.32 13.51 42.28 13.51L42.28 13.51L42.28 13.51Q42.18 13.51 42.12 13.15L42.12 13.15L42.12 13.15Q42.06 12.80 42.03 12.80L42.03 12.80L42.03 12.80Q42.01 12.80 41.76 13.02L41.76 13.02L41.76 13.02Q41.51 13.24 41.04 13.47L41.04 13.47L41.04 13.47Q40.57 13.69 40.01 13.69L40.01 13.69L40.01 13.69Q37.76 13.69 37.76 11.26L37.76 11.26L37.76 11.26Q37.76 9.90 37.77 9.33L37.77 9.33L37.77 9.33Q37.77 8.76 37.77 8.74L37.77 8.74L37.77 8.74Q37.77 8.46 37.63 8.29L37.63 8.29L37.63 8.29Q37.48 8.12 37.35 8.12L37.35 8.12L37.10 8.12L37.10 8.12Q36.85 8.12 36.85 7.92ZM44.94 8.01L44.94 8.01L44.94 8.01Q44.94 7.88 45.11 7.82L45.11 7.82L45.11 7.82Q45.28 7.76 45.61 7.69L45.61 7.69L45.61 7.69Q45.95 7.62 46.17 7.52L46.17 7.52L46.17 7.52Q46.26 7.49 46.35 7.43L46.35 7.43L46.35 7.43Q46.45 7.38 46.50 7.36L46.50 7.36L46.50 7.36Q46.55 7.34 46.63 7.32L46.63 7.32L46.63 7.32Q46.70 7.31 46.79 7.31L46.79 7.31L46.79 7.31Q46.96 7.31 46.96 7.71L46.96 7.71L46.96 7.71Q46.96 7.81 46.92 8.04L46.92 8.04L46.92 8.04Q46.89 8.26 46.89 8.30L46.89 8.30L46.89 8.30Q46.89 8.47 46.97 8.47L46.97 8.47L46.97 8.47Q46.98 8.47 47.06 8.36L47.06 8.36L47.06 8.36Q47.14 8.26 47.27 8.11L47.27 8.11L47.27 8.11Q47.40 7.97 47.60 7.82L47.60 7.82L47.60 7.82Q47.80 7.67 48.13 7.57L48.13 7.57L48.13 7.57Q48.45 7.46 48.86 7.46L48.86 7.46L48.86 7.46Q49.38 7.46 49.76 7.64L49.76 7.64L49.76 7.64Q50.13 7.81 50.28 8.02L50.28 8.02L50.28 8.02Q50.43 8.22 50.53 8.39L50.53 8.39L50.53 8.39Q50.62 8.57 50.65 8.57L50.65 8.57L50.65 8.57Q50.67 8.57 50.91 8.28L50.91 8.28L50.91 8.28Q51.16 7.99 51.61 7.71L51.61 7.71L51.61 7.71Q52.07 7.42 52.57 7.42L52.57 7.42L52.57 7.42Q53.59 7.42 54.15 8.02L54.15 8.02L54.15 8.02Q54.70 8.62 54.80 9.52L54.80 9.52L54.80 9.52Q54.88 10.35 54.88 11.30L54.88 11.30L54.88 11.75L54.88 11.75Q54.88 12.38 54.95 12.66L54.95 12.66L54.95 12.66Q55.02 12.94 55.27 13.02L55.27 13.02L55.27 13.02Q55.29 13.02 55.40 13.04L55.40 13.04L55.40 13.04Q55.51 13.06 55.59 13.08L55.59 13.08L55.59 13.08Q55.66 13.09 55.73 13.15L55.73 13.15L55.73 13.15Q55.80 13.20 55.80 13.29L55.80 13.29L55.80 13.29Q55.80 13.50 55.34 13.50L55.34 13.50L55.34 13.50Q55.26 13.50 54.92 13.47L54.92 13.47L54.92 13.47Q54.57 13.44 54.42 13.44L54.42 13.44L54.42 13.44Q54.21 13.44 53.88 13.47L53.88 13.47L53.88 13.47Q53.55 13.50 53.41 13.50L53.41 13.50L53.41 13.50Q53.07 13.50 53.07 13.36L53.07 13.36L53.07 13.36Q53.07 13.20 53.37 13.09L53.37 13.09L53.37 13.09Q53.66 12.98 53.72 12.85L53.72 12.85L53.72 12.85Q53.77 12.70 53.77 12.21L53.77 12.21L53.77 11.98L53.77 11.98Q53.77 11.51 53.77 11.15L53.77 11.15L53.77 11.15Q53.76 10.79 53.76 10.49L53.76 10.49L53.76 10.49Q53.76 10.19 53.74 9.97L53.74 9.97L53.74 9.97Q53.72 9.74 53.72 9.58L53.72 9.58L53.72 9.58Q53.72 9.42 53.68 9.29L53.68 9.29L53.68 9.29Q53.63 9.16 53.63 9.09L53.63 9.09L53.63 9.09Q53.62 9.02 53.55 8.92L53.55 8.92L53.55 8.92Q53.48 8.82 53.47 8.79L53.47 8.79L53.47 8.79Q53.45 8.76 53.36 8.65L53.36 8.65L53.36 8.65Q53.27 8.54 53.24 8.51L53.24 8.51L53.24 8.51Q52.88 8.08 52.19 8.08L52.19 8.08L52.19 8.08Q51.87 8.08 51.52 8.25L51.52 8.25L51.52 8.25Q51.17 8.41 50.96 8.59L50.96 8.59L50.96 8.59Q50.75 8.76 50.75 8.83L50.75 8.83L50.75 8.83Q50.75 8.88 50.77 9.03L50.77 9.03L50.77 9.03Q50.79 9.18 50.81 9.58L50.81 9.58L50.81 9.58Q50.83 9.98 50.83 10.61L50.83 10.61L50.83 11.80L50.83 11.80Q50.83 12.45 51.02 12.75L51.02 12.75L51.02 12.75Q51.20 13.05 51.80 13.13L51.80 13.13L51.80 13.13Q51.94 13.15 52.00 13.22L52.00 13.22L52.00 13.22Q52.05 13.30 52.05 13.36L52.05 13.36L52.05 13.36Q52.05 13.51 51.79 13.51L51.79 13.51L51.79 13.51Q51.69 13.51 51.34 13.47L51.34 13.47L51.34 13.47Q50.99 13.44 50.76 13.44L50.76 13.44L50.76 13.44Q50.62 13.44 50.08 13.47L50.08 13.47L50.08 13.47Q49.53 13.51 49.49 13.51L49.49 13.51L49.49 13.51Q49.18 13.51 49.18 13.33L49.18 13.33L49.18 13.33Q49.18 13.23 49.24 13.18L49.24 13.18L49.24 13.18Q49.29 13.13 49.50 13.05L49.50 13.05L49.50 13.05Q49.59 13.02 49.64 12.99L49.64 12.99L49.64 12.99Q49.69 12.96 49.76 12.75L49.76 12.75L49.76 12.75Q49.83 12.54 49.83 12.18L49.83 12.18L49.83 12.18Q49.83 12.12 49.83 12.07L49.83 12.07L49.83 12.07Q49.83 12.01 49.83 11.92L49.83 11.92L49.83 11.92Q49.84 11.83 49.84 11.50L49.84 11.50L49.84 11.50Q49.84 11.17 49.84 10.65L49.84 10.65L49.84 10.65Q49.84 10.35 49.83 10.16L49.83 10.16L49.83 10.16Q49.83 9.97 49.83 9.91L49.83 9.91L49.83 9.91Q49.83 9.86 49.82 9.82L49.82 9.82L49.82 9.82Q49.81 9.79 49.81 9.77L49.81 9.77L49.81 9.77Q49.81 9.03 49.43 8.58L49.43 8.58L49.43 8.58Q49.06 8.13 48.38 8.13L48.38 8.13L48.38 8.13Q47.80 8.13 47.33 8.44L47.33 8.44L47.33 8.44Q46.87 8.75 46.87 9.16L46.87 9.16L46.87 9.35L46.87 11.98L46.87 11.98Q46.87 12.49 47.05 12.75L47.05 12.75L47.05 12.75Q47.24 13.02 47.46 13.05L47.46 13.05L47.46 13.05Q47.68 13.09 47.87 13.13L47.87 13.13L47.87 13.13Q48.05 13.17 48.05 13.27L48.05 13.27L48.05 13.27Q48.05 13.40 48.01 13.44L48.01 13.44L48.01 13.44Q47.96 13.48 47.75 13.48L47.75 13.48L47.75 13.48Q47.70 13.48 47.31 13.46L47.31 13.46L47.31 13.46Q46.93 13.44 46.58 13.44L46.58 13.44L46.58 13.44Q46.26 13.44 45.89 13.46L45.89 13.46L45.89 13.46Q45.53 13.48 45.47 13.48L45.47 13.48L45.47 13.48Q45.14 13.48 45.14 13.27L45.14 13.27L45.14 13.27Q45.14 13.17 45.21 13.13L45.21 13.13L45.21 13.13Q45.29 13.09 45.39 13.08L45.39 13.08L45.39 13.08Q45.49 13.06 45.60 12.96L45.60 12.96L45.60 12.96Q45.71 12.85 45.78 12.66L45.78 12.66L45.78 12.66Q45.89 12.26 45.89 10.53L45.89 10.53L45.89 10.53Q45.89 10.26 45.89 9.69L45.89 9.69L45.89 9.69Q45.88 9.11 45.88 8.82L45.88 8.82L45.88 8.82Q45.88 8.48 45.73 8.34L45.73 8.34L45.73 8.34Q45.58 8.20 45.41 8.21L45.41 8.21L45.41 8.21Q45.23 8.22 45.09 8.18L45.09 8.18L45.09 8.18Q44.94 8.15 44.94 8.01ZM56.52 8.01L56.52 8.01L56.52 8.01Q56.52 7.88 56.69 7.82L56.69 7.82L56.69 7.82Q56.85 7.76 57.19 7.69L57.19 7.69L57.19 7.69Q57.53 7.62 57.75 7.52L57.75 7.52L57.75 7.52Q57.83 7.49 57.93 7.43L57.93 7.43L57.93 7.43Q58.03 7.38 58.08 7.36L58.08 7.36L58.08 7.36Q58.13 7.34 58.21 7.32L58.21 7.32L58.21 7.32Q58.28 7.31 58.37 7.31L58.37 7.31L58.37 7.31Q58.53 7.31 58.53 7.71L58.53 7.71L58.53 7.71Q58.53 7.81 58.50 8.04L58.50 8.04L58.50 8.04Q58.46 8.26 58.46 8.30L58.46 8.30L58.46 8.30Q58.46 8.47 58.55 8.47L58.55 8.47L58.55 8.47Q58.56 8.47 58.64 8.36L58.64 8.36L58.64 8.36Q58.72 8.26 58.85 8.11L58.85 8.11L58.85 8.11Q58.98 7.97 59.18 7.82L59.18 7.82L59.18 7.82Q59.37 7.67 59.70 7.57L59.70 7.57L59.70 7.57Q60.03 7.46 60.44 7.46L60.44 7.46L60.44 7.46Q60.96 7.46 61.33 7.64L61.33 7.64L61.33 7.64Q61.71 7.81 61.86 8.02L61.86 8.02L61.86 8.02Q62.01 8.22 62.10 8.39L62.10 8.39L62.10 8.39Q62.20 8.57 62.23 8.57L62.23 8.57L62.23 8.57Q62.24 8.57 62.49 8.28L62.49 8.28L62.49 8.28Q62.73 7.99 63.19 7.71L63.19 7.71L63.19 7.71Q63.64 7.42 64.15 7.42L64.15 7.42L64.15 7.42Q65.17 7.42 65.72 8.02L65.72 8.02L65.72 8.02Q66.28 8.62 66.37 9.52L66.37 9.52L66.37 9.52Q66.46 10.35 66.46 11.30L66.46 11.30L66.46 11.75L66.46 11.75Q66.46 12.38 66.53 12.66L66.53 12.66L66.53 12.66Q66.60 12.94 66.85 13.02L66.85 13.02L66.85 13.02Q66.86 13.02 66.98 13.04L66.98 13.04L66.98 13.04Q67.09 13.06 67.17 13.08L67.17 13.08L67.17 13.08Q67.24 13.09 67.31 13.15L67.31 13.15L67.31 13.15Q67.38 13.20 67.38 13.29L67.38 13.29L67.38 13.29Q67.38 13.50 66.92 13.50L66.92 13.50L66.92 13.50Q66.84 13.50 66.49 13.47L66.49 13.47L66.49 13.47Q66.15 13.44 66.00 13.44L66.00 13.44L66.00 13.44Q65.79 13.44 65.46 13.47L65.46 13.47L65.46 13.47Q65.13 13.50 64.99 13.50L64.99 13.50L64.99 13.50Q64.65 13.50 64.65 13.36L64.65 13.36L64.65 13.36Q64.65 13.20 64.95 13.09L64.95 13.09L64.95 13.09Q65.24 12.98 65.30 12.85L65.30 12.85L65.30 12.85Q65.35 12.70 65.35 12.21L65.35 12.21L65.35 11.98L65.35 11.98Q65.35 11.51 65.34 11.15L65.34 11.15L65.34 11.15Q65.34 10.79 65.34 10.49L65.34 10.49L65.34 10.49Q65.34 10.19 65.32 9.97L65.32 9.97L65.32 9.97Q65.30 9.74 65.30 9.58L65.30 9.58L65.30 9.58Q65.30 9.42 65.25 9.29L65.25 9.29L65.25 9.29Q65.21 9.16 65.20 9.09L65.20 9.09L65.20 9.09Q65.20 9.02 65.13 8.92L65.13 8.92L65.13 8.92Q65.06 8.82 65.04 8.79L65.04 8.79L65.04 8.79Q65.03 8.76 64.94 8.65L64.94 8.65L64.94 8.65Q64.85 8.54 64.82 8.51L64.82 8.51L64.82 8.51Q64.46 8.08 63.77 8.08L63.77 8.08L63.77 8.08Q63.45 8.08 63.10 8.25L63.10 8.25L63.10 8.25Q62.75 8.41 62.54 8.59L62.54 8.59L62.54 8.59Q62.33 8.76 62.33 8.83L62.33 8.83L62.33 8.83Q62.33 8.88 62.35 9.03L62.35 9.03L62.35 9.03Q62.37 9.18 62.39 9.58L62.39 9.58L62.39 9.58Q62.41 9.98 62.41 10.61L62.41 10.61L62.41 11.80L62.41 11.80Q62.41 12.45 62.59 12.75L62.59 12.75L62.59 12.75Q62.78 13.05 63.38 13.13L63.38 13.13L63.38 13.13Q63.52 13.15 63.57 13.22L63.57 13.22L63.57 13.22Q63.63 13.30 63.63 13.36L63.63 13.36L63.63 13.36Q63.63 13.51 63.36 13.51L63.36 13.51L63.36 13.51Q63.27 13.51 62.92 13.47L62.92 13.47L62.92 13.47Q62.57 13.44 62.34 13.44L62.34 13.44L62.34 13.44Q62.20 13.44 61.66 13.47L61.66 13.47L61.66 13.47Q61.11 13.51 61.07 13.51L61.07 13.51L61.07 13.51Q60.76 13.51 60.76 13.33L60.76 13.33L60.76 13.33Q60.76 13.23 60.82 13.18L60.82 13.18L60.82 13.18Q60.87 13.13 61.08 13.05L61.08 13.05L61.08 13.05Q61.17 13.02 61.22 12.99L61.22 12.99L61.22 12.99Q61.26 12.96 61.33 12.75L61.33 12.75L61.33 12.75Q61.40 12.54 61.40 12.18L61.40 12.18L61.40 12.18Q61.40 12.12 61.40 12.07L61.40 12.07L61.40 12.07Q61.40 12.01 61.41 11.92L61.41 11.92L61.41 11.92Q61.42 11.83 61.42 11.50L61.42 11.50L61.42 11.50Q61.42 11.17 61.42 10.65L61.42 10.65L61.42 10.65Q61.42 10.35 61.41 10.16L61.41 10.16L61.41 10.16Q61.40 9.97 61.40 9.91L61.40 9.91L61.40 9.91Q61.40 9.86 61.40 9.82L61.40 9.82L61.40 9.82Q61.39 9.79 61.39 9.77L61.39 9.77L61.39 9.77Q61.39 9.03 61.01 8.58L61.01 8.58L61.01 8.58Q60.63 8.13 59.96 8.13L59.96 8.13L59.96 8.13Q59.37 8.13 58.91 8.44L58.91 8.44L58.91 8.44Q58.45 8.75 58.45 9.16L58.45 9.16L58.45 9.35L58.45 11.98L58.45 11.98Q58.45 12.49 58.63 12.75L58.63 12.75L58.63 12.75Q58.81 13.02 59.04 13.05L59.04 13.05L59.04 13.05Q59.26 13.09 59.44 13.13L59.44 13.13L59.44 13.13Q59.63 13.17 59.63 13.27L59.63 13.27L59.63 13.27Q59.63 13.40 59.58 13.44L59.58 13.44L59.58 13.44Q59.54 13.48 59.33 13.48L59.33 13.48L59.33 13.48Q59.28 13.48 58.89 13.46L58.89 13.46L58.89 13.46Q58.51 13.44 58.16 13.44L58.16 13.44L58.16 13.44Q57.83 13.44 57.47 13.46L57.47 13.46L57.47 13.46Q57.11 13.48 57.05 13.48L57.05 13.48L57.05 13.48Q56.71 13.48 56.71 13.27L56.71 13.27L56.71 13.27Q56.71 13.17 56.79 13.13L56.79 13.13L56.79 13.13Q56.87 13.09 56.97 13.08L56.97 13.08L56.97 13.08Q57.06 13.06 57.18 12.96L57.18 12.96L57.18 12.96Q57.29 12.85 57.36 12.66L57.36 12.66L57.36 12.66Q57.47 12.26 57.47 10.53L57.47 10.53L57.47 10.53Q57.47 10.26 57.46 9.69L57.46 9.69L57.46 9.69Q57.46 9.11 57.46 8.82L57.46 8.82L57.46 8.82Q57.46 8.48 57.31 8.34L57.31 8.34L57.31 8.34Q57.16 8.20 56.99 8.21L56.99 8.21L56.99 8.21Q56.81 8.22 56.67 8.18L56.67 8.18L56.67 8.18Q56.52 8.15 56.52 8.01ZM67.52 7.67L67.52 7.67L67.52 7.67Q67.52 7.50 67.80 7.50L67.80 7.50L67.80 7.50Q68.19 7.50 68.61 7.52L68.61 7.52L68.61 7.52Q69.02 7.53 69.30 7.53L69.30 7.53L69.30 7.53Q69.54 7.53 69.73 7.52L69.73 7.52L69.73 7.52Q69.92 7.50 70.10 7.50L70.10 7.50L70.10 7.50Q70.20 7.50 70.27 7.55L70.27 7.55L70.27 7.55Q70.35 7.60 70.35 7.66L70.35 7.66L70.35 7.66Q70.35 7.91 70.01 7.91L70.01 7.91L69.80 7.91L69.80 7.91Q69.58 7.91 69.58 8.30L69.58 8.30L69.58 8.30Q69.58 8.61 70.18 9.94L70.18 9.94L70.18 9.94Q70.22 10.05 70.25 10.11L70.25 10.11L70.25 10.11Q70.28 10.18 70.33 10.28L70.33 10.28L70.33 10.28Q70.38 10.39 70.42 10.49L70.42 10.49L70.42 10.49Q70.50 10.67 70.70 11.12L70.70 11.12L70.70 11.12Q70.90 11.56 71.00 11.77L71.00 11.77L71.00 11.77Q71.11 11.98 71.16 11.98L71.16 11.98L71.16 11.98Q71.25 11.98 71.81 10.37L71.81 10.37L71.81 10.37Q72.38 8.76 72.38 8.43L72.38 8.43L72.38 8.43Q72.38 8.15 72.25 8.02L72.25 8.02L72.25 8.02Q72.11 7.90 71.95 7.90L71.95 7.90L71.95 7.90Q71.78 7.91 71.65 7.86L71.65 7.86L71.65 7.86Q71.51 7.81 71.51 7.66L71.51 7.66L71.51 7.66Q71.51 7.49 71.78 7.49L71.78 7.49L71.78 7.49Q71.99 7.49 72.33 7.50L72.33 7.50L72.33 7.50Q72.67 7.50 72.79 7.50L72.79 7.50L72.79 7.50Q72.93 7.50 73.27 7.50L73.27 7.50L73.27 7.50Q73.61 7.49 73.65 7.49L73.65 7.49L73.65 7.49Q73.95 7.49 73.95 7.67L73.95 7.67L73.95 7.67Q73.95 7.81 73.70 7.87L73.70 7.87L73.70 7.87Q73.46 7.94 73.37 8.05L73.37 8.05L73.37 8.05Q73.15 8.37 72.62 9.81L72.62 9.81L71.37 13.13L71.37 13.13Q71.22 13.54 71.06 13.96L71.06 13.96L71.06 13.96Q70.91 14.39 70.81 14.66L70.81 14.66L70.81 14.66Q70.71 14.92 70.62 15.19L70.62 15.19L70.62 15.19Q70.52 15.46 70.46 15.60L70.46 15.60L70.46 15.60Q70.41 15.75 70.34 15.88L70.34 15.88L70.34 15.88Q70.28 16.00 70.23 16.05L70.23 16.05L70.23 16.05Q70.18 16.10 70.14 16.10L70.14 16.10L70.14 16.10Q70.13 16.10 70.09 16.10L70.09 16.10L70.09 16.10Q70.06 16.10 69.92 16.11L69.92 16.11L69.92 16.11Q69.78 16.11 69.50 16.11L69.50 16.11L69.50 16.11Q69.23 16.11 69.23 15.93L69.23 15.93L69.23 15.93Q69.23 15.89 69.55 15.50L69.55 15.50L69.55 15.50Q69.86 15.11 70.18 14.53L70.18 14.53L70.18 14.53Q70.50 13.96 70.50 13.48L70.50 13.48L70.50 13.48Q70.50 13.08 69.71 11.34L69.71 11.34L69.71 11.34Q68.91 9.60 68.32 8.50L68.32 8.50L68.32 8.50Q68.17 8.22 68.01 8.06L68.01 8.06L68.01 8.06Q67.84 7.91 67.75 7.90L67.75 7.90L67.75 7.90Q67.65 7.88 67.59 7.84L67.59 7.84L67.59 7.84Q67.52 7.80 67.52 7.67ZM77.48 3.72L77.48 3.72L77.48 3.72Q77.48 3.50 77.80 3.50L77.80 3.50L77.80 3.50Q77.84 3.50 77.95 3.49L77.95 3.49L77.95 3.49Q78.06 3.49 78.32 3.49L78.32 3.49L78.32 3.49Q78.39 3.49 78.70 3.51L78.70 3.51L78.70 3.51Q79.02 3.53 79.16 3.53L79.16 3.53L79.16 3.53Q79.46 3.53 80.35 3.51L80.35 3.51L80.35 3.51Q81.23 3.49 81.47 3.49L81.47 3.49L81.47 3.49Q82.78 3.49 83.73 4.15L83.73 4.15L83.73 4.15Q84.69 4.82 84.69 6.06L84.69 6.06L84.69 6.06Q84.69 6.75 84.43 7.29L84.43 7.29L84.43 7.29Q84.18 7.83 83.83 8.13L83.83 8.13L83.83 8.13Q83.47 8.44 83.03 8.64L83.03 8.64L83.03 8.64Q82.59 8.85 82.24 8.91L82.24 8.91L82.24 8.91Q81.90 8.97 81.63 8.97L81.63 8.97L81.63 8.97Q81.19 8.97 80.72 8.87L80.72 8.87L80.72 8.87Q80.26 8.76 80.26 8.65L80.26 8.65L80.26 8.65Q80.26 8.44 80.44 8.44L80.44 8.44L80.44 8.44Q80.51 8.44 80.73 8.50L80.73 8.50L80.73 8.50Q80.95 8.55 81.16 8.55L81.16 8.55L81.16 8.55Q81.48 8.55 81.84 8.46L81.84 8.46L81.84 8.46Q82.21 8.37 82.60 8.17L82.60 8.17L82.60 8.17Q82.99 7.97 83.24 7.55L83.24 7.55L83.24 7.55Q83.50 7.14 83.50 6.59L83.50 6.59L83.50 6.59Q83.50 5.66 82.74 4.85L82.74 4.85L82.74 4.85Q81.98 4.05 80.65 4.05L80.65 4.05L80.65 4.05Q80.22 4.05 80.07 4.30L80.07 4.30L80.07 4.30Q79.91 4.56 79.91 5.47L79.91 5.47L79.91 5.47Q79.91 8.39 79.90 8.80L79.90 8.80L79.90 8.80Q79.88 9.21 79.88 11.26L79.88 11.26L79.88 11.26Q79.88 12.49 80.46 12.87L80.46 12.87L80.46 12.87Q80.61 12.96 80.84 12.99L80.84 12.99L80.84 12.99Q81.07 13.02 81.23 13.01L81.23 13.01L81.23 13.01Q81.38 13.01 81.50 13.07L81.50 13.07L81.50 13.07Q81.62 13.13 81.62 13.30L81.62 13.30L81.62 13.30Q81.62 13.54 81.30 13.54L81.30 13.54L81.30 13.54Q80.98 13.54 80.16 13.50L80.16 13.50L80.16 13.50Q79.35 13.47 79.30 13.47L79.30 13.47L79.30 13.47Q79.16 13.47 78.74 13.50L78.74 13.50L78.74 13.50Q78.33 13.52 77.99 13.52L77.99 13.52L77.99 13.52Q77.56 13.52 77.56 13.37L77.56 13.37L77.56 13.37Q77.56 13.29 77.58 13.23L77.58 13.23L77.58 13.23Q77.60 13.17 77.62 13.14L77.62 13.14L77.62 13.14Q77.64 13.10 77.71 13.08L77.71 13.08L77.71 13.08Q77.78 13.05 77.81 13.03L77.81 13.03L77.81 13.03Q77.84 13.02 77.94 13.00L77.94 13.00L77.94 13.00Q78.05 12.98 78.09 12.96L78.09 12.96L78.09 12.96Q78.12 12.95 78.18 12.94L78.18 12.94L78.18 12.94Q78.23 12.94 78.25 12.93L78.25 12.93L78.25 12.93Q78.27 12.92 78.32 12.89L78.32 12.89L78.32 12.89Q78.37 12.85 78.40 12.79L78.40 12.79L78.40 12.79Q78.43 12.73 78.48 12.62L78.48 12.62L78.48 12.62Q78.53 12.52 78.58 12.35L78.58 12.35L78.58 12.35Q78.68 12.08 78.74 10.25L78.74 10.25L78.74 10.25Q78.79 8.41 78.79 7.41L78.79 7.41L78.79 7.41Q78.79 6.54 78.78 5.80L78.78 5.80L78.78 5.80Q78.78 5.07 78.78 5.03L78.78 5.03L78.78 5.03Q78.78 4.65 78.54 4.28L78.54 4.28L78.54 4.28Q78.30 3.91 77.76 3.91L77.76 3.91L77.76 3.91Q77.48 3.91 77.48 3.72ZM85.40 8.11L85.40 8.11L85.40 8.11Q85.40 8.04 85.44 7.99L85.44 7.99L85.44 7.99Q85.47 7.95 85.58 7.90L85.58 7.90L85.58 7.90Q85.68 7.85 85.79 7.82L85.79 7.82L85.79 7.82Q85.90 7.78 86.12 7.71L86.12 7.71L86.12 7.71Q86.34 7.63 86.53 7.55L86.53 7.55L86.53 7.55Q86.69 7.48 86.82 7.42L86.82 7.42L86.82 7.42Q86.95 7.36 87.00 7.34L87.00 7.34L87.00 7.34Q87.04 7.32 87.09 7.31L87.09 7.31L87.09 7.31Q87.15 7.29 87.23 7.29L87.23 7.29L87.23 7.29Q87.44 7.29 87.44 7.56L87.44 7.56L87.44 7.56Q87.44 7.63 87.40 7.87L87.40 7.87L87.40 7.87Q87.36 8.11 87.36 8.23L87.36 8.23L87.36 12.07L87.36 12.07Q87.36 12.49 87.49 12.73L87.49 12.73L87.49 12.73Q87.63 12.96 87.77 13.02L87.77 13.02L87.77 13.02Q87.92 13.08 88.14 13.09L88.14 13.09L88.14 13.09Q88.31 13.10 88.37 13.11L88.37 13.11L88.37 13.11Q88.42 13.12 88.49 13.16L88.49 13.16L88.49 13.16Q88.56 13.20 88.56 13.30L88.56 13.30L88.56 13.30Q88.56 13.54 88.33 13.54L88.33 13.54L88.33 13.54Q88.30 13.54 88.23 13.53L88.23 13.53L88.23 13.53Q88.16 13.52 88.12 13.52L88.12 13.52L88.12 13.52Q87.81 13.52 87.60 13.51L87.60 13.51L87.60 13.51Q87.39 13.50 87.12 13.50L87.12 13.50L87.12 13.50Q86.79 13.50 86.49 13.51L86.49 13.51L86.49 13.51Q86.20 13.52 86.13 13.52L86.13 13.52L86.13 13.52Q85.57 13.52 85.57 13.34L85.57 13.34L85.57 13.34Q85.57 13.15 85.78 13.08L85.78 13.08L85.78 13.08Q85.79 13.08 85.83 13.06L85.83 13.06L85.83 13.06Q86.16 12.95 86.23 12.78L86.23 12.78L86.23 12.78Q86.35 12.50 86.35 10.56L86.35 10.56L86.35 9.32L86.35 9.32Q86.35 8.92 86.25 8.68L86.25 8.68L86.25 8.68Q86.16 8.44 86.07 8.39L86.07 8.39L86.07 8.39Q85.99 8.33 85.78 8.29L85.78 8.29L85.78 8.29Q85.58 8.26 85.54 8.25L85.54 8.25L85.54 8.25Q85.40 8.19 85.40 8.11ZM86.20 5.18L86.20 5.18L86.20 5.18Q86.20 5.01 86.44 4.71L86.44 4.71L86.44 4.71Q86.69 4.41 86.90 4.41L86.90 4.41L86.90 4.41Q87.12 4.41 87.33 4.70L87.33 4.70L87.33 4.70Q87.54 4.98 87.54 5.21L87.54 5.21L87.54 5.21Q87.54 5.43 87.28 5.70L87.28 5.70L87.28 5.70Q87.01 5.98 86.88 5.98L86.88 5.98L86.88 5.98Q86.60 5.98 86.40 5.68L86.40 5.68L86.40 5.68Q86.20 5.39 86.20 5.18ZM89.43 13.23L89.43 13.23L89.43 13.23Q89.43 13.16 89.44 13.11L89.44 13.11L89.44 13.11Q89.45 13.06 89.46 13.03L89.46 13.03L89.46 13.03Q89.47 12.99 89.52 12.92L89.52 12.92L89.52 12.92Q89.56 12.85 89.60 12.80L89.60 12.80L89.60 12.80Q89.64 12.74 89.73 12.61L89.73 12.61L89.73 12.61Q89.82 12.47 89.91 12.36L89.91 12.36L89.91 12.36Q92.47 8.67 92.47 8.46L92.47 8.46L92.47 8.46Q92.47 8.39 92.15 8.39L92.15 8.39L92.15 8.39Q91.98 8.39 91.29 8.43L91.29 8.43L91.29 8.43Q90.59 8.48 90.44 8.48L90.44 8.48L90.44 8.48Q90.19 8.50 90.01 8.69L90.01 8.69L90.01 8.69Q89.84 8.89 89.74 9.09L89.74 9.09L89.74 9.09Q89.64 9.28 89.57 9.28L89.57 9.28L89.57 9.28Q89.46 9.28 89.46 9.13L89.46 9.13L89.46 9.13Q89.46 8.88 89.50 8.61L89.50 8.61L89.50 8.61Q89.53 8.34 89.59 8.06L89.59 8.06L89.59 8.06Q89.64 7.77 89.64 7.73L89.64 7.73L89.64 7.73Q89.67 7.48 89.92 7.48L89.92 7.48L89.92 7.48Q89.96 7.48 90.16 7.49L90.16 7.49L90.16 7.49Q90.36 7.50 90.69 7.51L90.69 7.51L90.69 7.51Q91.03 7.52 91.42 7.52L91.42 7.52L91.42 7.52Q91.85 7.52 92.53 7.50L92.53 7.50L92.53 7.50Q93.20 7.48 93.48 7.48L93.48 7.48L93.48 7.48Q93.65 7.48 93.65 7.62L93.65 7.62L93.65 7.62Q93.65 7.71 93.57 7.83L93.57 7.83L93.57 7.83Q93.49 7.95 93.38 8.08L93.38 8.08L93.38 8.08Q93.27 8.22 93.24 8.26L93.24 8.26L93.24 8.26Q92.65 9.17 91.92 10.21L91.92 10.21L91.92 10.21Q91.18 11.26 90.85 11.75L90.85 11.75L90.85 11.75Q90.52 12.25 90.52 12.42L90.52 12.42L90.52 12.42Q90.52 12.54 91.21 12.54L91.21 12.54L91.21 12.54Q91.36 12.54 91.60 12.54L91.60 12.54L91.60 12.54Q91.84 12.53 91.90 12.53L91.90 12.53L91.90 12.53Q92.26 12.53 92.51 12.48L92.51 12.48L92.51 12.48Q92.76 12.43 92.90 12.33L92.90 12.33L92.90 12.33Q93.03 12.22 93.09 12.14L93.09 12.14L93.09 12.14Q93.14 12.07 93.20 11.90L93.20 11.90L93.20 11.90Q93.27 11.73 93.30 11.68L93.30 11.68L93.30 11.68Q93.39 11.48 93.53 11.48L93.53 11.48L93.53 11.48Q93.76 11.48 93.76 11.68L93.76 11.68L93.76 11.68Q93.76 11.76 93.42 12.53L93.42 12.53L93.42 12.53Q93.38 12.63 93.33 12.81L93.33 12.81L93.33 12.81Q93.28 12.99 93.25 13.11L93.25 13.11L93.25 13.11Q93.21 13.23 93.15 13.32L93.15 13.32L93.15 13.32Q93.09 13.41 92.99 13.41L92.99 13.41L91.39 13.41L91.39 13.41Q91.31 13.41 90.95 13.42L90.95 13.42L90.95 13.42Q90.59 13.43 90.37 13.43L90.37 13.43L90.13 13.43L90.13 13.43Q89.89 13.43 89.80 13.44L89.80 13.44L89.70 13.44L89.70 13.44Q89.43 13.44 89.43 13.23ZM94.72 13.23L94.72 13.23L94.72 13.23Q94.72 13.16 94.73 13.11L94.73 13.11L94.73 13.11Q94.74 13.06 94.75 13.03L94.75 13.03L94.75 13.03Q94.77 12.99 94.81 12.92L94.81 12.92L94.81 12.92Q94.85 12.85 94.89 12.80L94.89 12.80L94.89 12.80Q94.93 12.74 95.03 12.61L95.03 12.61L95.03 12.61Q95.12 12.47 95.20 12.36L95.20 12.36L95.20 12.36Q97.76 8.67 97.76 8.46L97.76 8.46L97.76 8.46Q97.76 8.39 97.44 8.39L97.44 8.39L97.44 8.39Q97.27 8.39 96.58 8.43L96.58 8.43L96.58 8.43Q95.89 8.48 95.73 8.48L95.73 8.48L95.73 8.48Q95.48 8.50 95.31 8.69L95.31 8.69L95.31 8.69Q95.13 8.89 95.03 9.09L95.03 9.09L95.03 9.09Q94.93 9.28 94.86 9.28L94.86 9.28L94.86 9.28Q94.75 9.28 94.75 9.13L94.75 9.13L94.75 9.13Q94.75 8.88 94.79 8.61L94.79 8.61L94.79 8.61Q94.82 8.34 94.88 8.06L94.88 8.06L94.88 8.06Q94.93 7.77 94.93 7.73L94.93 7.73L94.93 7.73Q94.96 7.48 95.21 7.48L95.21 7.48L95.21 7.48Q95.26 7.48 95.45 7.49L95.45 7.49L95.45 7.49Q95.65 7.50 95.98 7.51L95.98 7.51L95.98 7.51Q96.32 7.52 96.71 7.52L96.71 7.52L96.71 7.52Q97.15 7.52 97.82 7.50L97.82 7.50L97.82 7.50Q98.49 7.48 98.77 7.48L98.77 7.48L98.77 7.48Q98.94 7.48 98.94 7.62L98.94 7.62L98.94 7.62Q98.94 7.71 98.86 7.83L98.86 7.83L98.86 7.83Q98.78 7.95 98.67 8.08L98.67 8.08L98.67 8.08Q98.56 8.22 98.53 8.26L98.53 8.26L98.53 8.26Q97.94 9.17 97.21 10.21L97.21 10.21L97.21 10.21Q96.47 11.26 96.14 11.75L96.14 11.75L96.14 11.75Q95.82 12.25 95.82 12.42L95.82 12.42L95.82 12.42Q95.82 12.54 96.50 12.54L96.50 12.54L96.50 12.54Q96.66 12.54 96.89 12.54L96.89 12.54L96.89 12.54Q97.13 12.53 97.19 12.53L97.19 12.53L97.19 12.53Q97.55 12.53 97.80 12.48L97.80 12.48L97.80 12.48Q98.06 12.43 98.19 12.33L98.19 12.33L98.19 12.33Q98.32 12.22 98.38 12.14L98.38 12.14L98.38 12.14Q98.43 12.07 98.50 11.90L98.50 11.90L98.50 11.90Q98.56 11.73 98.59 11.68L98.59 11.68L98.59 11.68Q98.69 11.48 98.83 11.48L98.83 11.48L98.83 11.48Q99.05 11.48 99.05 11.68L99.05 11.68L99.05 11.68Q99.05 11.76 98.71 12.53L98.71 12.53L98.71 12.53Q98.67 12.63 98.62 12.81L98.62 12.81L98.62 12.81Q98.57 12.99 98.54 13.11L98.54 13.11L98.54 13.11Q98.50 13.23 98.44 13.32L98.44 13.32L98.44 13.32Q98.38 13.41 98.28 13.41L98.28 13.41L96.68 13.41L96.68 13.41Q96.60 13.41 96.24 13.42L96.24 13.42L96.24 13.42Q95.89 13.43 95.66 13.43L95.66 13.43L95.42 13.43L95.42 13.43Q95.19 13.43 95.09 13.44L95.09 13.44L94.99 13.44L94.99 13.44Q94.72 13.44 94.72 13.23ZM100.13 12.25L100.13 12.25L100.13 12.25Q100.13 11.75 100.34 11.40L100.34 11.40L100.34 11.40Q100.55 11.06 100.98 10.87L100.98 10.87L100.98 10.87Q101.40 10.68 101.86 10.57L101.86 10.57L101.86 10.57Q102.33 10.46 102.98 10.35L102.98 10.35L102.98 10.35Q103.07 10.33 103.11 10.32L103.11 10.32L103.11 10.32Q103.15 10.32 103.22 10.31L103.22 10.31L103.22 10.31Q103.29 10.30 103.35 10.29L103.35 10.29L103.35 10.29Q103.45 10.28 103.48 10.26L103.48 10.26L103.48 10.26Q103.52 10.25 103.55 10.20L103.55 10.20L103.55 10.20Q103.59 10.15 103.59 10.07L103.59 10.07L103.59 10.07Q103.59 9.93 103.60 9.68L103.60 9.68L103.60 9.68Q103.61 9.44 103.61 9.34L103.61 9.34L103.61 9.34Q103.61 8.54 103.15 8.18L103.15 8.18L103.15 8.18Q102.69 7.83 102.26 7.83L102.26 7.83L102.26 7.83Q101.25 7.83 101.25 8.67L101.25 8.67L101.25 8.67Q101.25 8.78 101.28 8.95L101.28 8.95L101.28 8.95Q101.30 9.11 101.30 9.17L101.30 9.17L101.30 9.17Q101.30 9.45 101.05 9.45L101.05 9.45L101.05 9.45Q100.97 9.45 100.84 9.43L100.84 9.43L100.84 9.43Q100.72 9.41 100.56 9.36L100.56 9.36L100.56 9.36Q100.39 9.31 100.29 9.19L100.29 9.19L100.29 9.19Q100.18 9.07 100.18 8.90L100.18 8.90L100.18 8.90Q100.18 8.36 100.92 7.86L100.92 7.86L100.92 7.86Q101.65 7.36 102.54 7.36L102.54 7.36L102.54 7.36Q103.14 7.36 103.56 7.50L103.56 7.50L103.56 7.50Q103.98 7.64 104.18 7.82L104.18 7.82L104.18 7.82Q104.38 7.99 104.50 8.28L104.50 8.28L104.50 8.28Q104.61 8.57 104.62 8.73L104.62 8.73L104.62 8.73Q104.64 8.89 104.64 9.13L104.64 9.13L104.64 9.13Q104.64 10.14 104.60 10.72L104.60 10.72L104.60 10.72Q104.57 11.30 104.57 11.73L104.57 11.73L104.57 11.73Q104.57 12.25 104.68 12.55L104.68 12.55L104.68 12.55Q104.79 12.85 104.94 12.94L104.94 12.94L104.94 12.94Q105.10 13.02 105.25 13.03L105.25 13.03L105.25 13.03Q105.41 13.05 105.52 13.09L105.52 13.09L105.52 13.09Q105.63 13.13 105.63 13.26L105.63 13.26L105.63 13.26Q105.63 13.55 104.75 13.55L104.75 13.55L104.75 13.55Q104.38 13.55 104.13 13.36L104.13 13.36L104.13 13.36Q103.87 13.16 103.75 12.97L103.75 12.97L103.75 12.97Q103.64 12.78 103.63 12.78L103.63 12.78L103.63 12.78Q103.61 12.78 103.52 12.87L103.52 12.87L103.52 12.87Q103.42 12.96 103.24 13.09L103.24 13.09L103.24 13.09Q103.07 13.22 102.85 13.34L102.85 13.34L102.85 13.34Q102.63 13.47 102.35 13.56L102.35 13.56L102.35 13.56Q102.06 13.65 101.78 13.65L101.78 13.65L101.78 13.65Q100.88 13.65 100.48 13.23L100.48 13.23L100.48 13.23Q100.13 12.88 100.13 12.25ZM101.22 12.04L101.22 12.04L101.22 12.04Q101.22 12.52 101.50 12.80L101.50 12.80L101.50 12.80Q101.78 13.09 102.30 13.09L102.30 13.09L102.30 13.09Q102.66 13.09 102.92 12.98L102.92 12.98L102.92 12.98Q103.18 12.87 103.31 12.73L103.31 12.73L103.31 12.73Q103.43 12.59 103.50 12.36L103.50 12.36L103.50 12.36Q103.57 12.12 103.58 12.00L103.58 12.00L103.58 12.00Q103.59 11.87 103.59 11.66L103.59 11.66L103.59 10.65L103.59 10.65Q103.59 10.53 103.49 10.53L103.49 10.53L103.49 10.53Q103.46 10.53 103.42 10.54L103.42 10.54L103.42 10.54Q103.38 10.56 103.35 10.56L103.35 10.56L103.35 10.56Q103.03 10.61 102.94 10.63L102.94 10.63L102.94 10.63Q102.86 10.64 102.55 10.71L102.55 10.71L102.55 10.71Q102.24 10.78 102.12 10.84L102.12 10.84L102.12 10.84Q102.00 10.89 101.79 11.01L101.79 11.01L101.79 11.01Q101.57 11.13 101.48 11.26L101.48 11.26L101.48 11.26Q101.39 11.40 101.30 11.60L101.30 11.60L101.30 11.60Q101.22 11.80 101.22 12.04Z"></path></g><!----><g data-v-423bf9ae="" id="02f2e3fe-08cf-4cab-a5c4-e9b048139c14" transform="matrix(1.0495094299316405,0,0,1.0495094299316405,185.49994660020147,-0.6433371602135551)" stroke="none" fill="white"><path d="M14.257 65.774c4.191 9.445 11.735 16.402 20.631 20.071l13.931-34.924-34.562 14.853zm6.037 3.583a3.835 3.835 0 0 1 7.049-3.029 3.835 3.835 0 0 1-2.01 5.039 3.834 3.834 0 0 1-5.039-2.01zm13.961 9.952a3.833 3.833 0 0 1-5.038-2.01 3.834 3.834 0 0 1 2.01-5.037 3.834 3.834 0 0 1 5.038 2.009 3.834 3.834 0 0 1-2.01 5.038zm3.173-12.049a3.835 3.835 0 1 1-3.028-7.049 3.835 3.835 0 0 1 3.028 7.049zM11.821 35.463l-5.004-1.996c-4.142 10.69-4.309 22.922.452 34.308l4.933-2.12c-4.169-10.009-4.015-20.773-.381-30.192zM33.217 12.967l-2.12-4.934c-11.29 4.985-19.587 13.974-23.94 24.579l5.005 1.996c3.845-9.334 11.143-17.249 21.055-21.641zM64.254 12.223l1.997-5.005c-10.69-4.141-22.923-4.308-34.308.452l2.12 4.934c10.008-4.169 20.772-4.016 30.191-.381zM35.744 86.188c8.98 3.46 19.241 3.605 28.782-.363L49.673 51.263 35.744 86.188zm10.446-2.126a3.836 3.836 0 1 1-4.656-6.097 3.836 3.836 0 0 1 4.656 6.097zm.149-11.312a3.835 3.835 0 0 1 6.096-4.655 3.834 3.834 0 1 1-6.096 4.655zM58.648 84.2a3.833 3.833 0 0 1-5.375-.721 3.834 3.834 0 1 1 6.095-4.655 3.833 3.833 0 0 1-.72 5.376zM56.498 43.198l34.561-14.852C86.868 18.9 79.323 11.943 70.427 8.273L56.498 43.198zm14.242-9.547a3.835 3.835 0 1 1 2.231-4.942 3.833 3.833 0 0 1-2.231 4.942zm14.498-8.509a3.836 3.836 0 1 1-7.178 2.71 3.836 3.836 0 0 1 7.178-2.71zm-10.794-3.387a3.834 3.834 0 0 1-4.943-2.231 3.834 3.834 0 1 1 7.175-2.712 3.834 3.834 0 0 1-2.232 4.943z"></path><path d="M92.75 27.619l4.934-2.12C92.7 14.208 83.711 5.912 73.105 1.559l-1.996 5.004c9.334 3.846 17.249 11.144 21.641 21.056zM85.785 63.975c3.461-8.98 3.605-19.241-.362-28.782L50.861 50.044l34.924 13.931zm-9.471-21.974a3.835 3.835 0 0 1 5.137-1.745 3.836 3.836 0 1 1-5.137 1.745zM81.212 52.2a3.836 3.836 0 1 1-3.394 6.88 3.836 3.836 0 0 1 3.394-6.88zm-10.983-6.527a3.835 3.835 0 1 1-3.388 6.88 3.834 3.834 0 1 1 3.388-6.88zM65.372 85.461c9.445-4.191 16.402-11.735 20.072-20.631L50.52 50.898l14.852 34.563zm9.036-22.212a3.836 3.836 0 1 1 2.736 7.169 3.836 3.836 0 0 1-2.736-7.169zm-11.907-3.67a3.833 3.833 0 0 1 4.95 2.219 3.834 3.834 0 1 1-7.166 2.732 3.835 3.835 0 0 1 2.216-4.951zm3.602 12.255a3.837 3.837 0 0 1 2.736 7.169 3.837 3.837 0 0 1-2.736-7.169zM35.062 87.896l-1.996 5.005c10.689 4.142 22.922 4.31 34.308-.452l-2.12-4.934c-10.009 4.169-20.774 4.015-30.192.381zM33.944 14.659C24.498 18.85 17.542 26.394 13.872 35.29l34.924 13.93-14.852-34.561zm-8.255 22.017a3.837 3.837 0 1 1-2.787-7.15 3.837 3.837 0 0 1 2.787 7.15zm11.935 3.579a3.836 3.836 0 1 1-2.788-7.147 3.836 3.836 0 0 1 2.788 7.147zM33.93 28.027a3.836 3.836 0 1 1-2.788-7.147 3.836 3.836 0 0 1 2.788 7.147z"></path><path d="M66.099 87.152l2.12 4.934c11.29-4.983 19.587-13.973 23.94-24.578l-5.005-1.996c-3.846 9.334-11.143 17.249-21.055 21.64zM87.113 34.465c4.168 10.008 4.016 20.773.382 30.191l5.005 1.997c4.141-10.69 4.309-22.923-.452-34.308l-4.935 2.12zM13.53 36.145c-3.46 8.98-3.605 19.241.363 28.783l34.562-14.852L13.53 36.145zm8.618 21.968a3.837 3.837 0 1 1-6.782-3.59 3.837 3.837 0 0 1 6.782 3.59zm.588-11.931a3.836 3.836 0 1 1-6.78-3.588 3.836 3.836 0 0 1 6.78 3.588zm10.786 6.842a3.836 3.836 0 1 1-6.782-3.587 3.836 3.836 0 0 1 6.782 3.587zM63.571 13.932c-8.979-3.46-19.24-3.605-28.781.363l14.852 34.562 13.929-34.925zm-11.723 4.447a3.836 3.836 0 0 1 6.944 3.26 3.837 3.837 0 1 1-6.944-3.26zm.627 14.362a3.835 3.835 0 1 1-6.944-3.259 3.835 3.835 0 0 1 6.944 3.259zm-7.47-16.219a3.836 3.836 0 1 1-3.262 6.945 3.836 3.836 0 0 1 3.262-6.945zM12.565 66.501l-4.934 2.12c4.984 11.289 13.974 19.587 24.579 23.94l1.996-5.007c-9.333-3.844-17.249-11.141-21.641-21.053z"></path></g><!----></svg>